# xmcd
#
# Track frame offsets: 
#        150
#        20347
#        39607
#        57637
#        76270
#        97542
#        120937
#        140200
#        161610
#        179165
#        197562
#        219697
#        241625
#        260695
#        277937
#        299542
#
# Disc length: 4236 seconds
#
# Revision: 3
# Processed by: cddbd v1.5.2PL0 Copyright (c) Steve Scherf et al.
# Submitted via: ExactAudioCopyFreeDBPlugin 1.0
#
DISCID=e6108a10
DTITLE=刘德华 - 暖暖柔情粤语精选
DYEAR=1992
DGENRE=Pop
TTITLE0=只因一个你
TTITLE1=爱不完
TTITLE2=不需要爱情
TTITLE3=再吻我吧!
TTITLE4=可不可以
TTITLE5=绝望的笑容
TTITLE6=遗弃
TTITLE7=不可不信...缘
TTITLE8=一起走过的日子
TTITLE9=凭什么
TTITLE10=若然
TTITLE11=是我吗?
TTITLE12=最后...你也走了
TTITLE13=长夜多浪漫
TTITLE14=缘尽
TTITLE15=再会了
EXTD=
EXTT0=
EXTT1=
EXTT2=
EXTT3=
EXTT4=
EXTT5=
EXTT6=
EXTT7=
EXTT8=
EXTT9=
EXTT10=
EXTT11=
EXTT12=
EXTT13=
EXTT14=
EXTT15=
PLAYORDER=
